HIERARCHY
ROOT root
{
	OFFSET	0	13.1	24.9
	CHANNELS 6  Xposition Yposition Zposition Xrotation Yrotation Zrotation
	JOINT spine_1
	{
		OFFSET	0	9.99999	0
		CHANNELS 3  Xrotation Yrotation Zrotation
		JOINT spine_2
		{
			OFFSET	0	112	-10
			CHANNELS 3  Xrotation Yrotation Zrotation
			JOINT spine_3
			{
				OFFSET	0	206.5	19.3
				CHANNELS 3  Xrotation Yrotation Zrotation
				JOINT spine_4
				{
					OFFSET	0	110.4	14.6
					CHANNELS 3  Xrotation Yrotation Zrotation
					JOINT neck_1
					{
						OFFSET	0	71.8	-50.3
						CHANNELS 3  Xrotation Yrotation Zrotation
						JOINT neck_2
						{
							OFFSET	0	86.2	-25.8
							CHANNELS 3  Xrotation Yrotation Zrotation
							JOINT head_ee
							{
								OFFSET	0	179.8	-8.7
								CHANNELS 3  Xrotation Yrotation Zrotation
								End Site
								{
									OFFSET	1	0	0
								}
							}
						}
					}
					JOINT left_clavicle
					{
						OFFSET	-43.2	22.4	-70.8
						CHANNELS 3  Xrotation Yrotation Zrotation
						JOINT left_shoulder
						{
							OFFSET	-93.9	-5.79999	48.7
							CHANNELS 3  Xrotation Yrotation Zrotation
							JOINT left_elbow
							{
								OFFSET	-291.4	-30.8	15.2
								CHANNELS 3  Xrotation Yrotation Zrotation
								JOINT left_lowarm_twist
								{
									OFFSET	-110.7	-3.89999	13.6
									CHANNELS 3  Xrotation Yrotation Zrotation
									JOINT left_hand
									{
										OFFSET	-110.7	-3.89999	13.6
										CHANNELS 3  Xrotation Yrotation Zrotation
										JOINT left_ee
										{
											OFFSET	-80.8	-5.10001	12.1
											CHANNELS 3  Xrotation Yrotation Zrotation
											End Site
											{
												OFFSET	1	0	0
											}
										}
									}
								}
							}
						}
					}
					JOINT right_clavicle
					{
						OFFSET	43.2	22.4	-70.8
						CHANNELS 3  Xrotation Yrotation Zrotation
						JOINT right_shoulder
						{
							OFFSET	93.9	-5.79999	48.7
							CHANNELS 3  Xrotation Yrotation Zrotation
							JOINT right_elbow
							{
								OFFSET	291.4	-30.8	15.2
								CHANNELS 3  Xrotation Yrotation Zrotation
								JOINT right_lowarm_twist
								{
									OFFSET	110.7	-3.89999	13.6
									CHANNELS 3  Xrotation Yrotation Zrotation
									JOINT right_hand
									{
										OFFSET	110.7	-3.89999	13.6
										CHANNELS 3  Xrotation Yrotation Zrotation
										JOINT right_ee
										{
											OFFSET	80.8	-5.10001	12.1
											CHANNELS 3  Xrotation Yrotation Zrotation
											End Site
											{
												OFFSET	1	0	0
											}
										}
									}
								}
							}
						}
					}
				}
			}
		}
	}
	JOINT left_hip
	{
		OFFSET	-82.8	-127.5	0.300001
		CHANNELS 3  Xrotation Yrotation Zrotation
		JOINT left_knee
		{
			OFFSET	-28.2	-396.7	2.2
			CHANNELS 3  Xrotation Yrotation Zrotation
			JOINT left_ankle
			{
				OFFSET	-11.7	-411.3	35.4
				CHANNELS 3  Xrotation Yrotation Zrotation
				JOINT left_toes
				{
					OFFSET	0	-60	-88.6
					CHANNELS 3  Xrotation Yrotation Zrotation
					JOINT left_foot_ee
					{
						OFFSET	-22.5	-16.5	-42.2
						CHANNELS 3  Xrotation Yrotation Zrotation
						End Site
						{
							OFFSET	1	0	0
						}
					}
				}
			}
		}
	}
	JOINT right_hip
	{
		OFFSET	82.8	-127.5	0.300001
		CHANNELS 3  Xrotation Yrotation Zrotation
		JOINT right_knee
		{
			OFFSET	28.2	-396.7	2.2
			CHANNELS 3  Xrotation Yrotation Zrotation
			JOINT right_ankle
			{
				OFFSET	11.7	-411.3	35.4
				CHANNELS 3  Xrotation Yrotation Zrotation
				JOINT right_toes
				{
					OFFSET	0	-60	-88.6
					CHANNELS 3  Xrotation Yrotation Zrotation
					JOINT right_foot_ee
					{
						OFFSET	22.5	-16.5	-42.2
						CHANNELS 3  Xrotation Yrotation Zrotation
						End Site
						{
							OFFSET	1	0	0
						}
					}
				}
			}
		}
	}
}
MOTION
Frames: 10
Frame Time: 0.02
1372.05 701.618 -1475.22 1.15020229415 43.7699519198 5.31781467414 -3.81263 -0.474305 -3.36715 -3.80636 -0.25921 -3.39047 -3.78145 0.680994 -3.33154 -3.79691 0.146611 -3.39719 0.628024 11.9123 6.463 0.867444 15.8225 8.12943 -0.0 0.0 -0.0 11.688 -15.186 23.4795 2.19141 -19.1199 46.6271 3.00628 -56.1076 1.60235 24.9715 0.194214 -3.15883 0.398391 -7.4554 -0.474395 -0.0 0.0 -0.0 3.37828 -6.38462 -6.85729 -17.0564 23.0308 -59.7343 0.499189 13.8898 -0.060806 19.9122 -0.266663 2.51685 -0.0897221 -13.5126 -4.98809 0.0 0.0 0.0 -14.5702 -4.39591 -4.31372 -6.68799 0.217028 1.00288 31.7209 6.53455 -4.06944 15.4427 -0.0 -0.0 -0.0 0.0 -0.0 19.0462 5.85108 -4.70247 4.73993 0.224006 0.692521 -21.2137 -3.33328 -3.20418 -7.30452 0.0 0.0 0.0 0.0 0.0 
1356.12974191 699.51 -1508.27548432 0.280056743298 44.6878392647 6.01049679278 -3.59641 -0.425383 -3.08963 -3.59113 -0.228017 -3.1104 -3.57102 0.622842 -3.05598 -3.58402 0.132636 -3.11592 3.08681 12.2036 6.28743 3.35972 15.9114 7.82148 -0.0 0.0 -0.0 11.7961 -17.3959 23.6276 -0.68758 -17.6052 45.5837 2.55205 -51.6473 1.23517 24.7103 0.199341 -3.12586 0.37802 -6.98306 -0.411153 -0.0 0.0 -0.0 3.75512 -5.84155 -7.51925 -16.3519 23.0284 -60.0855 0.540635 14.993 -0.0711427 20.4703 -0.261457 2.58794 -0.129255 -12.8596 -4.47636 0.0 0.0 0.0 -15.5358 -4.23708 -5.08622 -7.25505 0.230015 1.08893 29.9907 6.51334 -3.88715 14.3715 -0.0 -0.0 -0.0 0.0 -0.0 19.8912 6.65072 -5.99265 2.31133 0.102058 0.339957 -17.4018 -4.44713 -2.62024 -4.99776 0.0 0.0 0.0 0.0 0.0 
1356.64234086 699.51 -1508.51750292 0.275873699032 43.8026092892 6.01649182659 -3.59641 -0.425383 -3.08963 -3.59113 -0.228017 -3.1104 -3.57102 0.622842 -3.05598 -3.58402 0.132636 -3.11592 3.08681 12.2036 6.28743 3.35972 15.9114 7.82148 -0.0 0.0 -0.0 11.7961 -17.3959 23.6276 -0.68758 -17.6052 45.5837 2.55205 -51.6473 1.23517 24.7103 0.199341 -3.12586 0.37802 -6.98306 -0.411153 -0.0 0.0 -0.0 3.75512 -5.84155 -7.51925 -16.3519 23.0284 -60.0855 0.540635 14.993 -0.0711427 20.4703 -0.261457 2.58794 -0.129255 -12.8596 -4.47636 0.0 0.0 0.0 -15.5358 -4.23708 -5.08622 -7.25505 0.230015 1.08893 29.9907 6.51334 -3.88715 14.3715 -0.0 -0.0 -0.0 0.0 -0.0 19.8912 6.65072 -5.99265 2.31133 0.102058 0.339957 -17.4018 -4.44713 -2.62024 -4.99776 0.0 0.0 0.0 0.0 0.0 
1336.35708982 702.904 -1530.3149366 0.52063556249 43.9985522861 5.66717644035 -3.64823 -0.382124 -3.05042 -3.64308 -0.187337 -3.06853 -3.62555 0.653562 -3.00403 -3.6381 0.171163 -3.06948 5.04425 11.7234 4.36938 5.33548 16.3067 5.5275 -0.0 0.0 -0.0 11.4471 -15.0342 22.9381 -3.36068 -16.5276 47.1804 2.61295 -52.3024 1.28314 25.144 0.190746 -3.18059 0.83398 -11.6763 0.660432 -0.0 0.0 -0.0 3.95521 -4.8778 -7.8485 -14.8499 22.1744 -59.4728 0.503903 14.0159 -0.0619428 21.5845 -0.248994 2.72971 -0.157869 -14.4918 -4.95382 0.0 0.0 0.0 -15.7828 -4.28685 -5.26785 -9.08195 0.266053 1.36695 28.6915 6.61413 -3.74663 14.6692 -0.0 -0.0 -0.0 0.0 -0.0 19.2402 6.50882 -6.02124 -0.525438 -0.0212788 -0.0778264 -13.0607 -3.86632 -1.96125 -4.25669 0.0 0.0 0.0 0.0 0.0 
1323.01573277 707.501 -1549.12424097 0.955210547806 43.7148556305 5.45559883927 -3.75362 -0.381427 -3.1054 -3.74827 -0.183148 -3.12335 -3.73041 0.678115 -3.05441 -3.74338 0.187464 -3.1231 6.30318 11.6766 4.09163 6.60935 16.2046 5.13882 -0.0 0.0 -0.0 11.4045 -14.0968 22.873 -6.08048 -16.6025 47.6732 2.44761 -50.4778 1.15393 25.191 0.18979 -3.18652 1.04083 -13.1964 1.39583 -0.0 0.0 -0.0 4.2347 -4.55285 -8.35459 -14.2657 21.6064 -59.678 0.478792 13.343 -0.0560041 21.2748 -0.252734 2.69034 -0.451042 -15.0594 -3.36094 0.0 0.0 0.0 -15.6562 -4.41864 -4.79543 -11.8149 0.303371 1.7846 28.2032 7.53256 -3.69377 14.9963 -0.0 -0.0 -0.0 0.0 -0.0 18.5421 6.30711 -6.40242 -2.64704 -0.0999018 -0.393914 -11.2899 -3.29329 -1.69347 -4.52083 0.0 0.0 0.0 0.0 0.0 
1324.58005396 707.501 -1550.13862531 0.936594761155 42.510558306 5.48283586927 -3.75362 -0.381427 -3.1054 -3.74827 -0.183148 -3.12335 -3.73041 0.678115 -3.05441 -3.74338 0.187464 -3.1231 6.30318 11.6766 4.09163 6.60935 16.2046 5.13882 -0.0 0.0 -0.0 11.4045 -14.0968 22.873 -6.08048 -16.6025 47.6732 2.44761 -50.4778 1.15393 25.191 0.18979 -3.18652 1.04083 -13.1964 1.39583 -0.0 0.0 -0.0 4.2347 -4.55285 -8.35459 -14.2657 21.6064 -59.678 0.478792 13.343 -0.0560041 21.2748 -0.252734 2.69034 -0.451042 -15.0594 -3.36094 0.0 0.0 0.0 -15.6562 -4.41864 -4.79543 -11.8149 0.303371 1.7846 28.2032 7.53256 -3.69377 14.9963 -0.0 -0.0 -0.0 0.0 -0.0 18.5421 6.30711 -6.40242 -2.64704 -0.0999018 -0.393914 -11.2899 -3.29329 -1.69347 -4.52083 0.0 0.0 0.0 0.0 0.0 
1272.01143676 714.174 -1604.57424952 2.46003470741 41.6178365721 4.19033948584 -3.8763 -0.328459 -2.90331 -3.87162 -0.143129 -2.91831 -3.85738 0.666806 -2.84478 -3.86862 0.209358 -2.91432 9.35758 12.2701 2.84532 9.7917 17.6784 3.49905 -0.0 0.0 -0.0 11.5057 -11.107 23.1594 -10.9654 -13.1849 51.4617 1.72645 -40.5346 0.637555 24.9239 0.195159 -3.15282 1.4452 -15.9744 2.89033 -0.0 0.0 -0.0 5.03711 -2.89719 -9.81428 -11.3982 21.8495 -57.1623 0.58389 16.1322 -0.0827482 22.755 -0.232932 2.87837 -0.813997 -14.7438 -0.977302 0.0 0.0 0.0 -14.7144 -5.04935 -4.81499 -18.5464 0.310105 2.81681 23.8596 8.24552 -3.19852 14.3977 -0.0 -0.0 -0.0 0.0 -0.0 16.4063 5.20878 -7.59604 -8.49903 -0.255518 -1.27812 -2.05419 -6.43903 -0.302213 -0.048815 0.0 0.0 0.0 0.0 0.0 
1276.15450668 714.174 -1607.67486161 2.39395652591 39.8062283615 4.29163368922 -3.8763 -0.328459 -2.90331 -3.87162 -0.143129 -2.91831 -3.85738 0.666806 -2.84478 -3.86862 0.209358 -2.91432 9.35758 12.2701 2.84532 9.7917 17.6784 3.49905 -0.0 0.0 -0.0 11.5057 -11.107 23.1594 -10.9654 -13.1849 51.4617 1.72645 -40.5346 0.637555 24.9239 0.195159 -3.15282 1.4452 -15.9744 2.89033 -0.0 0.0 -0.0 5.03711 -2.89719 -9.81428 -11.3982 21.8495 -57.1623 0.58389 16.1322 -0.0827482 22.755 -0.232932 2.87837 -0.813997 -14.7438 -0.977302 0.0 0.0 0.0 -14.7144 -5.04935 -4.81499 -18.5464 0.310105 2.81681 23.8596 8.24552 -3.19852 14.3977 -0.0 -0.0 -0.0 0.0 -0.0 16.4063 5.20878 -7.59604 -8.49903 -0.255518 -1.27812 -2.05419 -6.43903 -0.302213 -0.048815 0.0 0.0 0.0 0.0 0.0 
1255.49929621 714.895 -1627.70706695 4.36469184977 36.6299320118 3.15986019954 -4.32336 -0.321628 -2.81719 -4.31895 -0.141784 -2.83193 -4.3049 0.665822 -2.75626 -4.31543 0.222349 -2.82675 9.43075 12.465 1.65834 9.96977 19.0715 2.03765 -0.0 0.0 -0.0 11.6277 -9.47324 23.4367 -12.5426 -12.2001 52.9535 1.46412 -35.9505 0.475045 25.1478 0.190668 -3.18107 1.46543 -16.4458 2.81567 -0.0 0.0 -0.0 4.62147 -2.41378 -9.01033 -9.48972 23.7051 -57.3463 0.699551 19.1131 -0.117776 22.8294 -0.231808 2.88781 -0.9913 -15.1968 -0.0757191 0.0 0.0 0.0 -13.8109 -7.31339 -2.96286 -26.4384 0.163922 4.01808 27.1873 12.1839 -3.59804 14.1626 -0.0 -0.0 -0.0 0.0 -0.0 13.7133 5.23618 -7.83361 -10.4559 -0.287305 -1.5767 1.10208 -5.59992 0.161036 0.964145 -0.0 -0.0 0.0 0.0 0.0 
1250.22889529 716.663 -1644.67187546 5.1552716206 33.0078383365 3.1715741704 -4.39866 -0.253072 -2.85057 -4.39414 -0.0712456 -2.86088 -4.38353 0.745554 -2.76302 -4.39406 0.300016 -2.84601 9.50974 13.0314 1.37177 10.1343 20.2559 1.66746 -0.0 0.0 -0.0 11.5447 -8.02886 23.2382 -13.5411 -11.3009 54.1782 1.26896 -32.1522 0.365706 24.9783 0.194079 -3.15968 1.43098 -15.5857 2.96784 -0.0 0.0 -0.0 4.50013 0.757128 -8.65521 -7.2757 25.192 -57.3957 0.723469 19.7169 -0.125727 24.1931 -0.209046 3.06051 -1.0447 -15.2175 0.245251 0.0 0.0 0.0 -12.2522 -8.78066 -1.01236 -32.0524 -0.0400009 4.85516 28.8741 14.402 -3.80466 13.9901 -0.0 -0.0 -0.0 0.0 -0.0 11.8355 4.91015 -8.61805 -10.3988 -0.286522 -1.56797 3.69362 -5.08306 0.536237 2.03352 -0.0 -0.0 0.0 0.0 0.0 
